<?xml version="1.0" standalone="no"?><!DOCTYPE svg PUBLIC "-//W3C//DTD SVG 1.1//EN" "http://www.w3.org/Graphics/SVG/1.1/DTD/svg11.dtd"><svg t="1556011665253" class="icon" style="" viewBox="0 0 1024 1024" version="1.1" xmlns="http://www.w3.org/2000/svg" p-id="3625" xmlns:xlink="http://www.w3.org/1999/xlink" width="200" height="200"><defs><style type="text/css"></style></defs><path d="M85.333333 768h298.666667v85.333333H85.333333v-85.333333z m0-298.666667h384v85.333334H85.333333v-85.333334z m0-298.666666h853.333334v85.333333H85.333333V170.666667z m796.757334 385.066666l49.322666-16.682666 42.666667 73.898666-39.082667 34.346667a171.392 171.392 0 0 1 0 70.741333l39.082667 34.346667-42.666667 73.898667-49.322666-16.682667c-17.493333 15.786667-38.314667 27.946667-61.226667 35.413333L810.666667 896h-85.333334l-10.24-51.029333a170.496 170.496 0 0 1-61.184-35.413334l-49.322666 16.725334-42.666667-73.898667 39.082667-34.346667a171.392 171.392 0 0 1 0-70.741333l-39.082667-34.346667 42.666667-73.898666 49.322666 16.682666c17.493333-15.786667 38.314667-27.946667 61.226667-35.413333L725.333333 469.333333h85.333334l10.24 51.029334c22.869333 7.424 43.690667 19.626667 61.184 35.413333zM768 768a85.333333 85.333333 0 1 0 0-170.666667 85.333333 85.333333 0 0 0 0 170.666667z" p-id="3626"></path></svg>