<?xml version="1.0" standalone="no"?><!DOCTYPE svg PUBLIC "-//W3C//DTD SVG 1.1//EN" "http://www.w3.org/Graphics/SVG/1.1/DTD/svg11.dtd"><svg t="1556011719302" class="icon" style="" viewBox="0 0 1024 1024" version="1.1" xmlns="http://www.w3.org/2000/svg" p-id="3741" xmlns:xlink="http://www.w3.org/1999/xlink" width="200" height="200"><defs><style type="text/css"></style></defs><path d="M42.666667 618.666667a277.162667 277.162667 0 0 1 130.730666-235.477334 341.376 341.376 0 0 1 677.205334 0 277.333333 277.333333 0 0 1-125.269334 512L298.666667 896c-143.189333-11.690667-256-131.328-256-277.333333z m676.181333 191.445333a192 192 0 0 0 86.613333-354.517333l-34.432-21.461334-5.12-40.192a256.042667 256.042667 0 0 0-507.861333 0l-5.12 40.192-34.346667 21.461334a192 192 0 0 0 86.570667 354.517333l7.381333 0.554667h398.933334l7.381333-0.554667zM554.666667 554.666667v170.666666h-85.333334v-170.666666H341.333333l170.666667-213.333334 170.666667 213.333334h-128z" p-id="3742"></path></svg>